Coordinates
version=1
nRows=13
nColumns=22
inDegrees=yes

Units are S.I. units (second, meters, Newtons, ...)
If the header above contains a line with 'inDegrees', this indicates whether rotational values are in degrees (yes) or radians (no).

endheader
time	pelvis_tilt	pelvis_list	pelvis_rotation	pelvis_tx	pelvis_ty	pelvis_tz	hip_flexion_r	hip_adduction_r	hip_rotation_r	knee_angle_r	ankle_angle_r	subtalar_angle_r	hip_flexion_l	hip_adduction_l	hip_rotation_l	knee_angle_l	ankle_angle_l	subtalar_angle_l	lumbar_extension	lumbar_bending	lumbar_rotation
      4.14000000	      0.90840160	      2.68370397	      0.25086974	      0.47091280	      0.98361998	     -0.07346005	     26.62971904	     -5.65952610	     -6.94322415	     -8.95161209	      4.48548087	     14.62237982	    -11.20578182	      3.94370630	     -7.74690225	    -13.87688727	     18.75973930	     -0.91685362	     -5.75472070	     -5.10002985	     -6.53395740
      4.15000000	      0.87377350	      2.68768951	      0.56534982	      0.48130143	      0.98233971	     -0.07251009	     26.54658360	     -5.71572129	     -6.58694543	     -8.50286038	      4.63303358	     14.73693797	    -11.56090210	      3.75198647	     -7.32970319	    -14.36855744	     18.77709123	     -0.56261414	     -5.60840431	     -5.00699272	     -6.62533029
      4.16000000	      0.88150031	      2.66162961	      0.88100574	      0.49189356	      0.98120751	     -0.07147114	     26.45746778	     -5.75504903	     -6.34994993	     -8.43427900	      4.79479918	     14.83142110	    -11.91659904	      3.50120706	     -6.97712312	    -14.95633940	     18.70001972	      0.02913534	     -5.49250137	     -4.87581951	     -6.74279572
      4.17000000	      0.87374841	      2.62657699	      1.21940947	      0.50268116	      0.98016743	     -0.07041365	     26.39833399	     -5.80239236	     -6.23935335	     -8.67146474	      4.78705040	     14.81651563	    -12.23815183	      3.23425733	     -6.50866277	    -15.58603011	     18.53825787	      0.49500956	     -5.33730202	     -4.73251003	     -6.86392494
      4.18000000	      0.89591135	      2.55907487	      1.52434564	      0.51365451	      0.97926653	     -0.06917642	     26.33872396	     -5.80153760	     -6.17931117	     -9.20650570	      4.64805056	     14.71067418	    -12.55063969	      2.91317034	     -6.13873857	    -16.29955476	     18.33743024	      1.21822157	     -5.19485399	     -4.56058798	     -6.96129379
      4.19000000	      0.90598781	      2.45280187	      1.86696941	      0.52479464	      0.97850476	     -0.06792538	     26.30231087	     -5.78315170	     -6.29086752	     -9.97157279	      4.26789688	     14.58969688	    -12.82003181	      2.54145569	     -5.66985128	    -17.06489629	     17.99418566	      1.75063320	     -5.02038722	     -4.34156998	     -7.09973857
      4.20000000	      0.94288284	      2.31042724	      2.16344150	      0.53606306	      0.97791376	     -0.06650635	     26.27813524	     -5.70890242	     -6.48427939	    -10.93901225	      3.64531317	     14.32781130	    -13.06805973	      2.11890516	     -5.32688678	    -17.91743238	     17.60824908	      2.55586970	     -4.86113522	     -4.08506612	     -7.18015369
      4.21000000	      0.97079428	      2.11419163	      2.44852063	      0.54745500	      0.97750693	     -0.06493858	     26.27315642	     -5.57370008	     -6.75730659	    -12.00988218	      2.77393018	     14.09733794	    -13.26415071	      1.63404535	     -4.97779412	    -18.83495741	     17.07394437	      3.23709325	     -4.67515439	     -3.78074620	     -7.25123124
      4.22000000	      0.99891129	      1.87080499	      2.69462983	      0.55894561	      0.97730345	     -0.06321803	     26.29170811	     -5.37439147	     -7.04624734	    -13.16083846	      1.71888498	     13.83294660	    -13.41176157	      1.09767629	     -4.70855831	    -19.81951247	     16.40156721	      3.96011362	     -4.47272217	     -3.42668964	     -7.30367571
      4.23000000	      1.02628951	      1.59502374	      2.88642328	      0.57050538	      0.97731850	     -0.06130806	     26.32982961	     -5.11482795	     -7.29515453	    -14.35305281	      0.59803360	     13.55466885	    -13.49983594	      0.53058294	     -4.51687167	    -20.88670543	     15.55838973	      4.68868021	     -4.25729467	     -3.04907679	     -7.29716428
      4.24000000	      1.03800795	      1.27452749	      3.03493636	      0.58210150	      0.97752247	     -0.05925828	     26.40501474	     -4.79202281	     -7.50233378	    -15.58679331	     -0.51554429	     13.35834115	    -13.49662536	     -0.08154469	     -4.43004741	    -22.05464371	     14.60700240	      5.28349146	     -4.01236134	     -2.62681190	     -7.26972705
      4.25000000	      1.04829970	      0.94501434	      3.10939128	      0.59371879	      0.97794189	     -0.05700091	     26.48872260	     -4.41479324	     -7.57957092	    -16.83672910	     -1.49341285	     13.12193972	    -13.41397554	     -0.69778746	     -4.47248509	    -23.32772194	     13.44897377	      5.85497171	     -3.75742548	     -2.21240803	     -7.17978621
      4.26000000	      1.05671342	      0.61295126	      3.11378197	      0.60535887	      0.97855627	     -0.05459962	     26.58509679	     -3.99587843	     -7.55940962	    -18.12472165	     -2.26455907	     12.76084032	    -13.25521181	     -1.31644137	     -4.68426017	    -24.69168628	     12.11322446	      6.40950505	     -3.48763947	     -1.79741102	     -7.07954620
